<?xml version="1.0" encoding="UTF-8"?><!DOCTYPE svg PUBLIC "-//W3C//DTD SVG 1.1//EN" "http://www.w3.org/Graphics/SVG/1.1/DTD/svg11.dtd"><svg xmlns="http://www.w3.org/2000/svg"><symbol id="alarm" viewBox="0 0 57.157 57.157"><circle cx="28.578" cy="29.157" r="26" fill="#e0e1e2"/><circle cx="28.578" cy="29.157" r="15" fill="#fff"/><path d="M12.578 57.157a.999.999 0 0 1-.707-1.707l3.933-3.933a.999.999 0 1 1 1.414 1.414l-3.933 3.933a.997.997 0 0 1-.707.293zM44.578 57.157a.997.997 0 0 1-.707-.293l-3.963-3.963a.999.999 0 1 1 1.414-1.414l3.963 3.963a.999.999 0 0 1-.707 1.707z" fill="#424a60"/><path d="M46.672 11.371a.999.999 0 0 1-.707-1.707l3-3a.999.999 0 1 1 1.414 1.414l-3 3a.996.996 0 0 1-.707.293zM10.485 11.371a.997.997 0 0 1-.707-.293l-3-3a.999.999 0 1 1 1.414-1.414l3 3a.999.999 0 0 1-.707 1.707z" fill="#c7cac7"/><path d="M28.578 57.157c-15.439 0-28-12.561-28-28s12.561-28 28-28 28 12.561 28 28-12.56 28-28 28zm0-52c-13.234 0-24 10.767-24 24s10.766 24 24 24 24-10.767 24-24-10.766-24-24-24z" fill="#26b99a"/><g fill="#26b99a"><path d="M28.578 6.036a1 1 0 0 0-1 1v1a1 1 0 1 0 2 0v-1a1 1 0 0 0-1-1zM28.578 49.036a1 1 0 0 0-1 1v1a1 1 0 1 0 2 0v-1a1 1 0 0 0-1-1zM50.578 28.036h-1a1 1 0 1 0 0 2h1a1 1 0 1 0 0-2zM7.578 28.036h-1a1 1 0 1 0 0 2h1a1 1 0 1 0 0-2zM43.427 12.772l-.707.707a.999.999 0 1 0 1.414 1.414l.707-.707a.999.999 0 1 0-1.414-1.414zM13.022 43.178l-.707.707a.999.999 0 1 0 1.414 1.414l.707-.707a.999.999 0 1 0-1.414-1.414zM44.134 43.178a.999.999 0 1 0-1.414 1.414l.707.707a.997.997 0 0 0 1.414 0 .999.999 0 0 0 0-1.414l-.707-.707zM13.729 12.772a.999.999 0 1 0-1.414 1.414l.707.707a.997.997 0 0 0 1.414 0 .999.999 0 0 0 0-1.414l-.707-.707z"/></g><path d="M39.578 30.157h-8a1 1 0 1 1 0-2h8a1 1 0 1 1 0 2zM28.578 27.157a1 1 0 0 1-1-1v-11a1 1 0 1 1 2 0v11a1 1 0 0 1-1 1z" fill="#424a60"/><path d="M28.578 33.157c-2.206 0-4-1.794-4-4s1.794-4 4-4 4 1.794 4 4-1.794 4-4 4zm0-6c-1.103 0-2 .897-2 2s.897 2 2 2 2-.897 2-2-.897-2-2-2z" fill="#424a60"/><path d="M54.493 2.086a7.121 7.121 0 0 1 0 10.071L44.421 2.086a7.123 7.123 0 0 1 10.072 0zM2.664 2.086a7.121 7.121 0 0 0 0 10.071L12.735 2.086a7.121 7.121 0 0 0-10.071 0z" fill="#e7eced"/></symbol><symbol id="birth" viewBox="0 0 512 512"><path d="M484.174 267.13v166.957h-22.261c-24.067 0-44.563-15.279-52.325-36.665h-16.313c-35.859 0-64.927-29.313-64.927-65.473v-54.998c0-36.161 29.069-65.474 64.927-65.474h35.247c30.735.001 55.652 24.918 55.652 55.653z" fill="#efe8c5"/><path d="M422.957 143.842v67.636h5.565c30.736 0 55.652 24.917 55.652 55.652v166.957h-22.261c-15.172 0-28.918-6.078-38.957-15.923v71.575c0 12.275-9.986 22.261-22.261 22.261h-11.13c-6.147 0-11.13-4.983-11.13-11.13 0-6.147 4.983-11.13 11.13-11.13h11.13V144.696H39.748c-6.585 0-11.922-5.337-11.922-11.922a11.922 11.922 0 0 1 10.236-11.802l60.768-8.681 94.831-13.547 145.818-20.832v-5.565C339.478 32.392 371.87 0 411.826 0c39.956 0 72.348 32.391 72.348 72.348 0 36.172-26.546 66.14-61.217 71.494z" fill="#d6ceae"/><path d="M95.724 144.696H39.748c-6.585 0-11.922-5.337-11.922-11.922a11.922 11.922 0 0 1 10.236-11.802l60.768-8.681 94.831-13.547 145.818-20.832v66.783H95.724z" fill="#eab250"/><path d="M204.798 122.435h134.68v22.261H39.748c-6.585 0-11.922-5.337-11.922-11.922 0-5.032 3.143-9.403 7.68-11.13a11.88 11.88 0 0 0 4.242.791H204.798z" fill="#d19742"/><path d="M428.522 54.539c0 6.147-4.983 11.13-11.13 11.13-6.147 0-11.13-4.983-11.13-11.13s4.983-11.13 11.13-11.13c6.147 0 11.13 4.983 11.13 11.13z" fill="#665a4b"/><g fill="#d15d39"><path d="M428.522 500.87c0 6.147-4.983 11.13-11.13 11.13H372.87c-6.147 0-11.13-4.983-11.13-11.13 0-6.147 4.983-11.13 11.13-11.13h44.522c6.147-.001 11.13 4.982 11.13 11.13zM187.684 174.757l68.089 196.453C279.778 440.472 226.175 512 150.261 512c-75.913 0-129.517-71.527-105.512-140.79l68.089-196.453h74.846z"/></g><path d="M255.534 370.522c-19.741 18.49-46.77 30.174-77.447 30.174-59.03 0-104.563-43.252-110.612-95.055l45.363-130.884h74.846l67.85 195.765z" fill="#f77e41"/><path d="M205.913 133.565c0 30.736-24.917 55.652-55.652 55.652S94.609 164.3 94.609 133.565s24.917-55.652 55.652-55.652 55.652 24.917 55.652 55.652z" fill="#dd6a37"/><path d="M200.636 43.739l-23.725 47.45a33.248 33.248 0 0 1 6.741 20.115c0 18.442-14.949 33.391-33.391 33.391s-33.391-14.949-33.391-33.391a33.241 33.241 0 0 1 6.742-20.116L99.886 43.739c-3.665-7.331-.695-16.245 6.637-19.91 7.334-3.665 16.245-.693 19.91 6.637l23.726 47.45.102-.002.102.002 23.726-47.45c3.665-7.331 12.576-10.302 19.91-6.637 7.331 3.664 10.302 12.579 6.637 19.91z" fill="#f77e41"/></symbol><symbol id="boxing" viewBox="0 0 476.218 476.218"><path d="M445.092 238.108c0-114.314-92.667-206.983-206.981-206.983-114.318 0-206.986 92.67-206.986 206.983 0 114.316 92.668 206.985 206.986 206.985 114.315 0 206.981-92.669 206.981-206.985z" fill="#505b66"/><ellipse cx="243.734" cy="378.862" rx="125.617" ry="25.505" opacity=".29" fill="#333332"/><path d="M319.33 312.023l57.126-24.762c6.855-4.065 14.886-7.851 31.078-26.014l26.864-14.792c19.757-8.564 33.474-20.801 24.91-40.556l-24.978-57.626c-8.564-19.755-31.519-28.829-51.275-20.265l-20.814 9.023c-2.457-.629-5.599-1.37-9.65-2.262-10.222-2.249-17.401-4.694-27.534-2.081l-62.478 5.723c-10.135 2.613-16.231 12.948-13.616 23.081 1.335 5.184 4.696 9.299 9.01 11.744-19.05 8.9-27.692 31.372-19.276 50.788l34.009 78.455c8.56 19.755 26.869 18.108 46.624 9.544zm34.797-171.476l-1.009.439c.014-.199.393-.341 1.009-.439z" fill="#ea7053"/><path d="M475.279 216.661l-40.922-94.399c-3.324-7.667-12.233-11.188-19.9-7.864l-34.625 15.01 51.45 118.69 38.1-16.516c5.748-2.492 8.389-9.173 5.897-14.921zM356.113 258.79l-32.37-74.672c-2.796-6.451-10.292-9.413-16.743-6.617l-16.727 7.251c-6.451 2.796-9.413 10.292-6.617 16.743l32.369 74.673c2.796 6.451 10.293 9.413 16.744 6.617l16.728-7.252c6.45-2.797 9.413-10.293 6.616-16.743z" fill="#f5ece1"/><path d="M245.779 195.132l34.009 78.455c8.562 19.754 26.871 18.107 46.626 9.543l57.126-24.762c6.854-4.064 14.886-7.85 31.078-26.014l24.376-13.422 31.373-13.601 4.911 11.33c2.492 5.749-.148 12.429-5.897 14.921l-37.471 16.243-24.376 13.422c-16.192 18.164-24.223 21.95-31.078 26.014l-57.126 24.762c-19.755 8.564-38.064 10.211-46.626-9.543l-34.009-78.455c-5.707-13.164-3.552-27.72 4.352-38.513.496 3.241 1.365 6.472 2.732 9.62z" fill="#a04c39" opacity=".25"/><path d="M203.514 302.48l34.009-78.455c8.416-19.416-.226-41.887-19.276-50.788 4.313-2.445 7.675-6.56 9.01-11.744 2.616-10.134-3.481-20.468-13.616-23.081l-62.478-5.723c-10.133-2.613-17.313-.169-27.534 2.081-4.052.891-7.194 1.633-9.65 2.262l-20.814-9.023c-19.757-8.564-42.711.51-51.275 20.265l-24.98 57.625c-8.564 19.755 5.153 31.992 24.91 40.556l26.864 14.792c16.192 18.164 24.223 21.95 31.078 26.014l57.126 24.762c19.755 8.564 38.064 10.211 46.626-9.543zM123.1 140.986l-1.009-.439c.616.098.995.24 1.009.439z" fill="#ea7053"/><path d="M.939 216.661l40.922-94.399c3.324-7.667 12.233-11.188 19.9-7.864l34.625 15.01-51.45 118.69-38.1-16.516c-5.749-2.492-8.389-9.173-5.897-14.921zM120.104 258.79l32.37-74.672c2.796-6.451 10.292-9.413 16.743-6.617l16.727 7.251c6.451 2.796 9.413 10.292 6.617 16.743l-32.369 74.673c-2.796 6.451-10.293 9.413-16.744 6.617l-16.728-7.252c-6.45-2.797-9.412-10.293-6.616-16.743z" fill="#f5ece1"/><path d="M230.439 195.132l-34.009 78.455c-8.562 19.754-26.871 18.107-46.626 9.543l-57.126-24.762c-6.854-4.064-14.886-7.85-31.078-26.014l-24.376-13.422L5.85 205.331l-4.911 11.33c-2.492 5.749.148 12.429 5.897 14.921l37.471 16.243 24.376 13.422c16.192 18.164 24.223 21.95 31.078 26.014l57.126 24.762c19.755 8.564 38.064 10.211 46.626-9.543l34.009-78.455c5.707-13.164 3.552-27.72-4.352-38.513-.496 3.241-1.365 6.472-2.731 9.62z" fill="#a04c39" opacity=".25"/></symbol><symbol id="camera" viewBox="0 0 58 58"><path d="M45 15.5l-4-10H17l-4 10H3.799A3.8 3.8 0 0 0 0 19.299v29.368A3.833 3.833 0 0 0 3.833 52.5h50.333a3.833 3.833 0 0 0 3.833-3.833V19.299A3.8 3.8 0 0 0 54.2 15.5H45z" fill="#556080"/><circle cx="29" cy="31.5" r="17" fill="#424a60" stroke="#2b313d" stroke-width="2" stroke-linecap="round" stroke-miterlimit="10"/><circle cx="29" cy="31.5" r="11" fill="#7383bf"/><path fill="#38454f" d="M6 10.5h4v5H6z"/><circle cx="51" cy="22.5" r="3" fill="#efce4a"/><path d="M32 31.5c0 3.595 1.418 6.778 3.6 8.785 2.667-2.007 4.4-5.19 4.4-8.785s-1.733-6.778-4.4-8.785c-2.182 2.007-3.6 5.19-3.6 8.785zM18 31.5c0 3.595 1.733 6.778 4.4 8.785 2.182-2.007 3.6-5.19 3.6-8.785s-1.418-6.778-3.6-8.785c-2.667 2.007-4.4 5.19-4.4 8.785z" fill="#879ad8"/><path d="M29 43.5c-6.617 0-12-5.383-12-12s5.383-12 12-12 12 5.383 12 12-5.383 12-12 12zm0-22c-5.514 0-10 4.486-10 10s4.486 10 10 10 10-4.486 10-10-4.486-10-10-10z" fill="#556080"/><circle cx="30.5" cy="28" r="3.5" fill="#4674e8"/><circle cx="28" cy="29.5" r="2" fill="#bf4d90"/><circle cx="25" cy="27.5" r="2" fill="#bccef7"/></symbol><symbol id="city" viewBox="0 0 496 496"><g fill="#08446d"><path d="M420 496H12V386.4L72 328h348zM172 0h56v48h-56z"/></g><path fill="#00233f" d="M172 0h56v48"/><path fill="#08446d" d="M124 16h152v160H124z"/><g fill="#00233f"><path d="M124 16h152v160"/><path d="M92 72h216v424H92z"/></g><path fill="#22efab" d="M180 112h40v40h-40z"/><path fill="#0dd396" d="M220 112v40h-40"/><path fill="#22efab" d="M180 168h40v40h-40z"/><path fill="#0dd396" d="M220 168v40h-40"/><path fill="#22efab" d="M180 224h40v40h-40z"/><path fill="#0dd396" d="M220 224v40h-40"/><path fill="#22efab" d="M180 280h40v40h-40z"/><path fill="#0dd396" d="M220 280v40h-40"/><path fill="#22efab" d="M180 336h40v40h-40z"/><path fill="#0dd396" d="M220 336v40h-40"/><path fill="#22efab" d="M124 168h40v40h-40z"/><path fill="#0dd396" d="M164 168v40h-40"/><path fill="#22efab" d="M124 224h40v40h-40z"/><path fill="#0dd396" d="M164 224v40h-40"/><path fill="#22efab" d="M124 280h40v40h-40z"/><path fill="#0dd396" d="M164 280v40h-40"/><path fill="#22efab" d="M124 336h40v40h-40z"/><path fill="#0dd396" d="M164 336v40h-40"/><path fill="#22efab" d="M124 112h40v40h-40z"/><path fill="#0dd396" d="M164 112v40h-40"/><path fill="#22efab" d="M236 112h40v40h-40z"/><path fill="#0dd396" d="M276 112v40h-40"/><path fill="#22efab" d="M236 168h40v40h-40z"/><path fill="#0dd396" d="M276 168v40h-40"/><path fill="#22efab" d="M236 224h40v40h-40z"/><path fill="#0dd396" d="M276 224v40h-40"/><path fill="#22efab" d="M236 280h40v40h-40z"/><path fill="#0dd396" d="M276 280v40h-40"/><path fill="#22efab" d="M236 336h40v40h-40z"/><path fill="#0dd396" d="M276 336v40h-40"/><path d="M228 488v-63.2c0-5.6-5.6-8.8-11.2-8.8h-34.4c-5.6 0-10.4 4-10.4 8.8V488h56z" fill="#c6640c"/><g fill="#08446d"><path d="M332 200h152v296H332z"/><path d="M356 152h104v112H356z"/><path d="M380 96h56v104h-56z"/><path d="M376 205.6l32-195.2 32 195.2-32 32z"/></g><g fill="#5a8ca8"><path d="M364 232h8v232h-8zM404 232h8v232h-8zM436 232h8v232h-8z"/></g></symbol><symbol id="close" viewBox="0 0 50 50"><circle cx="25" cy="25" r="25" fill="#d75a4a"/><path fill="none" stroke="#fff" stroke-width="2" stroke-linecap="round" stroke-miterlimit="10" d="M16 34l9-9 9-9M16 16l9 9 9 9"/></symbol><symbol id="correct" viewBox="0 0 369.946 369.946"><path d="M184.973 0C82.981 0 0 82.975 0 184.973s82.981 184.973 184.973 184.973 184.973-82.975 184.973-184.973S286.965 0 184.973 0zm-34.196 263.873l-66.125-66.125 8.437-8.437 57.688 57.688 125.561-125.561 8.437 8.437-133.998 133.998z" fill="#91DC5A"/></symbol><symbol id="cup" viewBox="0 0 461.241 461.241"><path d="M170.3 193.523c-63.212-24.946-89.854-71.038-101.074-105.311-12.078-36.895-9.286-67.745-9.161-69.04l.871-9.041h74.375v20H79.726c.099 10.976 1.485 30.743 8.742 52.572 14.479 43.552 44.482 74.578 89.174 92.216l-7.342 18.604z" fill="#e5c400"/><path d="M170.3 193.523c-63.212-24.946-89.854-71.038-101.074-105.311-12.078-36.895-9.286-67.745-9.161-69.04l.871-9.041h74.375v20H79.726c.099 10.976 1.485 30.743 8.742 52.572 14.479 43.552 44.482 74.578 89.174 92.216l-7.342 18.604z" opacity=".4" fill="#5b5b5f"/><path fill="#e5c400" d="M213.658 214.612h33.926v85.673h-33.926zM316.344 334.479H144.897v-7.395c0-14.8 11.998-26.798 26.798-26.798h117.851c14.8 0 26.798 11.998 26.798 26.798v7.395z"/><path fill="#d8d9dd" d="M123.228 334.479h214.785v105.905H123.228z"/><path fill="#fff" d="M148.441 359.692h164.358v55.475H148.441z"/><path fill="#59595a" d="M111.805 435.566h237.63v25.675h-237.63z"/><path opacity=".4" fill="#5b5b5f" d="M213.658 214.612h33.926v22.604h-33.926z"/><path d="M401.176 19.173l-.871-9.041h-54.179c.072-3.485.11-6.874.11-10.132H230.62 115.005c0 77.692 19.344 224.599 115.615 224.599 29.033 0 51.06-13.373 67.68-34.167 57.929-25.52 82.942-69.313 93.715-102.22 12.078-36.894 9.286-67.744 9.161-69.039zM373.008 81.99c-10.267 31.362-28.544 56.266-54.516 74.405 17.133-38.413 24.48-86.494 26.832-126.264h36.21c-.085 10.814-1.433 30.192-8.526 51.859z" fill="#e5c400"/><path d="M316.344 334.479H144.897v-7.395c0-14.8 11.998-26.798 26.798-26.798h117.851c14.8 0 26.798 11.998 26.798 26.798v7.395z" opacity=".4" fill="#5b5b5f"/><path d="M401.176 19.173l-.871-9.041h-54.179c.072-3.485.11-6.874.11-10.132H230.62v461.241h118.815v-25.675h-11.423V334.479h-21.669v-7.395c0-14.8-11.998-26.798-26.798-26.798h-41.963v-77.32c20.863-4.153 37.5-15.997 50.717-32.533 57.929-25.52 82.942-69.313 93.715-102.22 12.079-36.895 9.287-67.745 9.162-69.04zM373.008 81.99c-10.267 31.362-28.544 56.266-54.516 74.405 17.133-38.413 24.48-86.494 26.832-126.264h36.21c-.085 10.814-1.433 30.192-8.526 51.859z" opacity=".3" fill="#5b5b5f"/></symbol><symbol id="fullscreenEnter" viewBox="0 0 357 357"><path d="M51 229.5H0V357h127.5v-51H51v-76.5zm-51-102h51V51h76.5V0H0v127.5zM306 306h-76.5v51H357V229.5h-51V306zM229.5 0v51H306v76.5h51V0H229.5z" fill="#FFF"/></symbol><symbol id="fullscreenExit" viewBox="0 0 357 357"><path d="M0 280.5h76.5V357h51V229.5H0v51zm76.5-204H0v51h127.5V0h-51v76.5zm153 280.5h51v-76.5H357v-51H229.5V357zm51-280.5V0h-51v127.5H357v-51h-76.5z" fill="#FFF"/></symbol><symbol id="medal" viewBox="0 0 512 512"><path d="M272.68 196.543L364.993 4.535A8 8 0 0 1 372.204 0h128.961a8.008 8.008 0 0 1 6.773 3.742 8.018 8.018 0 0 1 .438 7.723L385.985 266.039a8.011 8.011 0 0 1-7.211 4.536c-1.5 0-2.984-.422-4.281-1.238l-98.883-62.566a8.006 8.006 0 0 1-2.93-10.228z" fill="#ff4f19"/><path d="M441.982 0h59.183a8.008 8.008 0 0 1 6.773 3.742 8.018 8.018 0 0 1 .438 7.723L385.985 266.039a8.011 8.011 0 0 1-7.211 4.536c-1.5 0-2.984-.422-4.281-1.238l-47.538-30.079L441.982 0z" fill="#e3001e"/><path d="M239.319 196.543L147.007 4.535A8 8 0 0 0 139.796 0H10.835a8.008 8.008 0 0 0-6.773 3.742 8.018 8.018 0 0 0-.438 7.723l122.391 254.574a8.011 8.011 0 0 0 7.211 4.536c1.5 0 2.984-.422 4.281-1.238l98.883-62.566a8.005 8.005 0 0 0 2.929-10.228z" fill="#ff4f19"/><path d="M70.018 0H10.835a8.008 8.008 0 0 0-6.773 3.742 8.018 8.018 0 0 0-.438 7.723l122.391 254.574a8.011 8.011 0 0 0 7.211 4.536c1.5 0 2.984-.422 4.281-1.238l47.538-30.079L70.018 0z" fill="#e3001e"/><circle cx="256.109" cy="352" r="160" fill="#ffcd00"/><path d="M256.109 512c44.183 0 84.183-17.909 113.136-46.863L142.972 238.863C114.017 267.817 96.109 307.817 96.109 352c0 88.365 71.634 160 160 160z" fill="#ff9100"/><path d="M297.944 431.207c-2.625 0-5.266-.633-7.703-1.914l-34.133-17.941-34.133 17.941c-5.609 2.941-12.289 2.453-17.398-1.262-5.133-3.727-7.648-9.922-6.578-16.168l6.516-38-27.617-26.91c-4.539-4.43-6.141-10.922-4.18-16.949s7.07-10.344 13.344-11.258l38.156-5.543 17.07-34.574c2.797-5.68 8.477-9.211 14.812-9.215h.008c6.344 0 12.023 3.531 14.828 9.215l17.063 34.574 38.148 5.543c6.281.914 11.391 5.23 13.352 11.258s.359 12.52-4.18 16.945l-27.617 26.914 6.523 38c1.07 6.246-1.445 12.441-6.578 16.168a16.474 16.474 0 0 1-9.703 3.176zm-109.875-95.715l30.625 29.848a8.01 8.01 0 0 1 2.297 7.082l-7.227 42.145 4.492 7.645-3.719-7.082 37.852-19.898a7.973 7.973 0 0 1 7.437 0l37.852 19.898 8.664-1.914-7.883 1.352-7.234-42.145a8.01 8.01 0 0 1 2.297-7.082l30.625-29.848.852-8.828-1.148 7.918-42.313-6.148a7.991 7.991 0 0 1-6.023-4.379l-18.922-38.344c0 .008-.477.004-.766 0h-.195l-18.93 38.348a7.996 7.996 0 0 1-6.023 4.375l-42.312 6.148-5.883 6.641 5.585-5.732zM384.132 360c-2.086 0-4.164-.883-5.688-2.32-1.516-1.52-2.313-3.602-2.313-5.68 0-2.082.797-4.16 2.313-5.68 2.961-2.961 8.32-2.961 11.281 0 1.523 1.52 2.406 3.598 2.406 5.68 0 2.078-.883 4.16-2.406 5.68-1.437 1.437-3.515 2.32-5.593 2.32zM256.132 232c-2.164 0-4.164-.883-5.687-2.32-1.516-1.52-2.313-3.602-2.313-5.68 0-2.082.797-4.16 2.313-5.68 2.961-2.961 8.32-2.961 11.281 0 1.523 1.52 2.406 3.598 2.406 5.68 0 2.078-.883 4.16-2.406 5.68-1.438 1.437-3.516 2.32-5.594 2.32zM165.569 269.519c-2.078 0-4.164-.883-5.602-2.402-1.523-1.438-2.398-3.52-2.398-5.598 0-2.16.875-4.242 2.398-5.68 2.883-2.961 8.32-2.961 11.281 0 1.516 1.52 2.32 3.52 2.32 5.68 0 2.078-.805 4.16-2.32 5.598-1.522 1.52-3.522 2.402-5.679 2.402zM346.608 450.48c-2.078 0-4.164-.801-5.68-2.32-1.438-1.441-2.32-3.523-2.32-5.68 0-2.082.883-4.16 2.32-5.602 3.039-3.039 8.32-3.039 11.359 0 1.438 1.441 2.32 3.52 2.32 5.602 0 2.156-.883 4.156-2.32 5.68-1.522 1.52-3.6 2.32-5.679 2.32zM346.608 269.519c-2.078 0-4.164-.883-5.68-2.32-1.438-1.52-2.32-3.602-2.32-5.68 0-2.16.883-4.242 2.32-5.68 2.961-2.961 8.32-2.961 11.359 0 1.438 1.438 2.32 3.52 2.32 5.68 0 2.078-.883 4.16-2.32 5.68-1.522 1.438-3.6 2.32-5.679 2.32zM374.366 311.039c-2.078 0-4.156-.879-5.68-2.402-1.438-1.438-2.32-3.52-2.32-5.598 0-2.16.883-4.242 2.32-5.68 3.039-2.961 8.32-2.961 11.359 0 1.445 1.438 2.32 3.52 2.32 5.68 0 2.078-.875 4.16-2.32 5.598-1.515 1.523-3.601 2.402-5.679 2.402zM207.085 241.758c-2.078 0-4.156-.879-5.594-2.398a7.808 7.808 0 0 1-2.406-5.602c0-2.078.883-4.16 2.406-5.68 2.953-2.961 8.32-2.961 11.273 0 1.523 1.52 2.32 3.52 2.32 5.68 0 2.082-.797 4.16-2.32 5.68-1.515 1.441-3.515 2.32-5.679 2.32zM374.366 408.957c-2.078 0-4.156-.797-5.68-2.32-1.438-1.52-2.32-3.52-2.32-5.68 0-2.078.883-4.16 2.32-5.598 2.961-3.039 8.398-3.039 11.359 0 1.445 1.438 2.32 3.52 2.32 5.598 0 2.16-.875 4.16-2.32 5.68-1.515 1.523-3.601 2.32-5.679 2.32zM305.085 241.758c-2.078 0-4.156-.879-5.68-2.32-1.438-1.52-2.32-3.598-2.32-5.68 0-2.16.883-4.238 2.32-5.68 2.961-2.961 8.32-2.961 11.359 0 1.445 1.52 2.32 3.52 2.32 5.68 0 2.082-.875 4.16-2.32 5.68-1.515 1.441-3.593 2.32-5.679 2.32zM381.569 334.48c-2.164 0-4.242-.883-5.68-2.32-1.523-1.523-2.32-3.602-2.32-5.68 0-2.082.797-4.16 2.32-5.684 2.961-2.957 8.32-2.957 11.281 0 1.516 1.523 2.398 3.602 2.398 5.684 0 2.078-.883 4.156-2.398 5.68-1.444 1.438-3.523 2.32-5.601 2.32zM230.608 234.559c-2.164 0-4.164-.879-5.68-2.32-1.523-1.52-2.32-3.52-2.32-5.68 0-2.078.797-4.16 2.32-5.68 2.961-2.961 8.32-2.961 11.359 0 1.438 1.52 2.32 3.602 2.32 5.68s-.883 4.16-2.32 5.68c-1.522 1.441-3.6 2.32-5.679 2.32zM362.851 430.637c-2.086 0-4.164-.879-5.68-2.316-1.445-1.523-2.32-3.523-2.32-5.684 0-2.078.875-4.156 2.32-5.68 2.961-2.957 8.398-2.957 11.359 0 1.438 1.523 2.32 3.602 2.32 5.68 0 2.16-.883 4.16-2.32 5.684-1.523 1.437-3.601 2.316-5.679 2.316zM326.765 253.277c-2.078 0-4.156-.879-5.68-2.32-1.438-1.52-2.32-3.598-2.32-5.68 0-2.16.883-4.16 2.32-5.68 2.961-2.961 8.406-2.961 11.281 0 1.523 1.441 2.398 3.52 2.398 5.68 0 2.082-.875 4.16-2.398 5.68a8.051 8.051 0 0 1-5.601 2.32zM362.21 288.398c-2.078 0-4.164-.801-5.68-2.32-1.445-1.441-2.32-3.52-2.32-5.68 0-2.078.875-4.16 2.32-5.68 3.039-2.961 8.32-2.961 11.359 0 1.516 1.52 2.32 3.602 2.32 5.68 0 2.16-.805 4.238-2.32 5.68-1.523 1.52-3.523 2.32-5.679 2.32zM184.53 253.84c-2.164 0-4.164-.801-5.68-2.32-1.445-1.441-2.32-3.52-2.32-5.602 0-2.16.875-4.238 2.32-5.68 2.961-2.961 8.398-2.961 11.359 0 1.438 1.441 2.32 3.52 2.32 5.68 0 2.082-.883 4.16-2.32 5.602-1.522 1.519-3.601 2.32-5.679 2.32zM381.726 384.398c-2.078 0-4.156-.801-5.68-2.32-1.438-1.52-2.32-3.52-2.32-5.68 0-2.078.883-4.16 2.32-5.68 3.039-2.961 8.32-2.961 11.359 0 1.523 1.52 2.32 3.602 2.32 5.68 0 2.16-.797 4.16-2.32 5.68-1.515 1.52-3.515 2.32-5.679 2.32zM280.53 234.32c-2.164 0-4.164-.801-5.68-2.32-1.445-1.52-2.32-3.52-2.32-5.68 0-2.082.875-4.16 2.32-5.602 2.961-3.039 8.32-3.039 11.359 0 1.438 1.441 2.32 3.52 2.32 5.602 0 2.16-.883 4.238-2.32 5.68-1.522 1.519-3.601 2.32-5.679 2.32z" fill="#fff"/><path d="M297.944 431.207c3.414 0 6.805-1.07 9.703-3.176 5.133-3.727 7.648-9.922 6.578-16.168l-.362-2.108-19.593-19.593 4.189 24.404 7.883-1.352-8.664 1.914-37.852-19.898a7.973 7.973 0 0 0-7.437 0l-37.852 19.898 3.719 7.082-4.492-7.645 7.227-42.145a8.01 8.01 0 0 0-2.297-7.082l-30.625-29.848-5.586 5.73 5.883-6.641 42.312-6.148c.509-.074.988-.233 1.464-.399l-13.955-13.956-32.126 4.667c-6.273.914-11.383 5.23-13.344 11.258s-.359 12.52 4.18 16.949l27.617 26.91-6.516 38c-1.07 6.246 1.445 12.441 6.578 16.168 5.109 3.715 11.789 4.203 17.398 1.262l34.133-17.941 34.133 17.941a16.514 16.514 0 0 0 7.704 1.917zM128.132 360c-2.086 0-4.164-.883-5.688-2.32-1.438-1.52-2.312-3.602-2.312-5.68 0-2.082.875-4.16 2.312-5.68 2.961-2.961 8.32-2.961 11.281 0 1.523 1.52 2.406 3.598 2.406 5.68 0 2.078-.883 4.16-2.406 5.68-1.437 1.437-3.515 2.32-5.593 2.32zM256.132 488c-2.086 0-4.164-.883-5.687-2.32-1.516-1.52-2.313-3.602-2.313-5.68 0-2.082.797-4.16 2.313-5.68 3.047-2.961 8.32-2.961 11.281 0 1.523 1.52 2.406 3.598 2.406 5.68 0 2.078-.883 4.16-2.406 5.68-1.438 1.437-3.516 2.32-5.594 2.32zM165.569 450.48c-2.078 0-4.164-.801-5.602-2.32-1.523-1.523-2.398-3.602-2.398-5.68 0-2.082.875-4.16 2.398-5.602 2.961-2.961 8.32-3.039 11.281 0 1.516 1.441 2.32 3.52 2.32 5.602 0 2.078-.805 4.156-2.32 5.68-1.436 1.52-3.522 2.32-5.679 2.32zM137.89 408.957c-2.164 0-4.242-.797-5.68-2.32-1.523-1.52-2.32-3.598-2.32-5.68 0-2.078.797-4.16 2.32-5.598 2.961-3.039 8.32-3.039 11.281 0 1.516 1.438 2.398 3.52 2.398 5.598 0 2.082-.883 4.16-2.398 5.68-1.445 1.523-3.523 2.32-5.601 2.32zM305.085 478.238c-2.078 0-4.156-.801-5.68-2.32-1.438-1.438-2.32-3.52-2.32-5.68 0-2.078.883-4.16 2.32-5.68 3.039-2.961 8.32-2.961 11.359 0 1.445 1.52 2.32 3.602 2.32 5.68 0 2.082-.875 4.16-2.32 5.68-1.515 1.519-3.593 2.32-5.679 2.32zM137.89 311.039c-2.164 0-4.242-.879-5.68-2.402-1.523-1.438-2.32-3.52-2.32-5.598 0-2.16.797-4.242 2.32-5.68 2.961-2.961 8.32-2.961 11.281 0 1.516 1.52 2.398 3.52 2.398 5.68 0 2.078-.883 4.16-2.398 5.598a7.816 7.816 0 0 1-5.601 2.402zM207.085 478.238c-2.078 0-4.156-.801-5.594-2.32-1.523-1.52-2.406-3.52-2.406-5.68 0-2.078.883-4.16 2.406-5.602 2.953-3.039 8.32-3.039 11.273 0 1.523 1.441 2.32 3.523 2.32 5.602 0 2.16-.797 4.16-2.32 5.68-1.437 1.519-3.515 2.32-5.679 2.32zM130.687 385.519c-2.078 0-4.156-.883-5.68-2.32-1.438-1.52-2.32-3.602-2.32-5.68 0-2.082.883-4.16 2.32-5.68 3.039-2.961 8.32-2.961 11.359 0 1.445 1.52 2.32 3.598 2.32 5.68 0 2.078-.875 4.16-2.32 5.68-1.515 1.438-3.601 2.32-5.679 2.32zM281.647 485.437c-2.156 0-4.242-.879-5.68-2.32-1.523-1.52-2.32-3.598-2.32-5.68 0-2.078.797-4.16 2.32-5.68 2.961-2.961 8.32-2.961 11.281 0 1.516 1.52 2.398 3.602 2.398 5.68 0 2.082-.883 4.16-2.398 5.68-1.436 1.441-3.522 2.32-5.601 2.32zM149.405 289.359c-2.156 0-4.234-.879-5.68-2.32-1.516-1.52-2.32-3.602-2.32-5.68 0-2.16.805-4.16 2.32-5.68 2.961-2.961 8.32-2.961 11.281 0 1.523 1.52 2.398 3.598 2.398 5.68 0 2.078-.875 4.16-2.398 5.68a8.051 8.051 0 0 1-5.601 2.32zM185.491 466.719c-2.164 0-4.242-.879-5.68-2.32-1.523-1.52-2.32-3.52-2.32-5.68 0-2.082.797-4.16 2.32-5.602 2.953-3.039 8.32-3.039 11.273 0a7.808 7.808 0 0 1 2.406 5.602c0 2.16-.883 4.16-2.406 5.68a8.045 8.045 0 0 1-5.593 2.32zM149.968 431.598c-2.078 0-4.156-.879-5.68-2.398-1.438-1.441-2.32-3.52-2.32-5.602 0-2.16.883-4.16 2.32-5.68 3.039-2.961 8.398-2.961 11.359 0 1.523 1.52 2.32 3.52 2.32 5.68 0 2.082-.797 4.16-2.32 5.602-1.515 1.519-3.515 2.398-5.679 2.398zM327.726 466.078c-2.156 0-4.234-.801-5.68-2.32-1.516-1.438-2.32-3.52-2.32-5.68 0-2.078.805-4.16 2.32-5.598 2.883-2.961 8.32-3.043 11.281 0 1.523 1.438 2.398 3.52 2.398 5.598 0 2.16-.875 4.242-2.398 5.68-1.437 1.519-3.515 2.32-5.601 2.32zM130.444 335.598c-2.078 0-4.156-.879-5.68-2.398-1.438-1.441-2.32-3.52-2.32-5.602 0-2.16.883-4.16 2.32-5.68 2.961-2.961 8.406-2.961 11.367 0 1.516 1.52 2.313 3.52 2.313 5.68 0 2.082-.797 4.16-2.313 5.602-1.523 1.519-3.601 2.398-5.687 2.398zM231.648 485.68a7.836 7.836 0 0 1-5.602-2.402c-1.516-1.438-2.32-3.52-2.32-5.598 0-2.16.805-4.242 2.32-5.68 2.961-2.961 8.32-2.961 11.281 0 1.523 1.438 2.32 3.52 2.32 5.68 0 2.078-.797 4.16-2.32 5.598-1.437 1.519-3.515 2.402-5.679 2.402zM159.96 255.851c-1.517 1.438-2.391 3.513-2.391 5.668 0 2.078.875 4.16 2.398 5.598 1.438 1.52 3.523 2.402 5.602 2.402 2.15 0 4.144-.88 5.666-2.393l-11.275-11.275zM346.608 450.48c2.073 0 4.145-.799 5.668-2.313l-11.312-11.312c-.01.01-.025.013-.036.023-1.438 1.441-2.32 3.52-2.32 5.602 0 2.156.883 4.238 2.32 5.68 1.516 1.52 3.602 2.32 5.68 2.32z" fill="#ffcd00"/></symbol><symbol id="rings" viewBox="0 0 492.4 492.4"><path d="M184 392.8c-92.8 0-168-75.2-168-168s75.2-168 168-168 168 75.2 168 168-75.2 168-168 168zm0-300c-72.8 0-132 59.2-132 132s59.2 132 132 132 132-59.2 132-132-59.2-132-132-132z" fill="#f4bd22"/><g fill="#ffee76"><path d="M187.2 364.8c72.8 0 132-59.2 132-132 0-18.4-4-36-10.4-52 4.8 13.6 8 28.8 8 44 0 72.8-59.2 132-132 132-54.4 0-100.8-32.8-120.8-80 16.8 51.2 65.6 88 123.2 88z"/><path d="M19.2 232.8c0-92.8 75.2-168 168-168 69.6 0 128.8 42.4 154.4 102.4-24-64-85.6-110.4-157.6-110.4-92.8 0-168 75.2-168 168 0 23.2 4.8 45.6 13.6 65.6-6.4-17.6-10.4-37.6-10.4-57.6z"/></g><g fill="#f8991e"><path d="M184 56.8h-1.6v36h1.6c72.8 0 132 59.2 132 132s-59.2 132-132 132h-1.6v36h1.6c92.8 0 168-75.2 168-168s-75.2-168-168-168z"/><path d="M189.6 443.2c-65.6-65.6-65.6-172 0-237.6s172-65.6 237.6 0 65.6 172 0 237.6c-64.8 65.6-172 65.6-237.6 0zm212-212c-51.2-51.2-135.2-51.2-186.4 0s-51.2 135.2 0 186.4 135.2 51.2 186.4 0c52-52 52-135.2 0-186.4z"/></g><g fill="#ffee76"><path d="M212 424.8c51.2 51.2 135.2 51.2 186.4 0 12.8-12.8 22.4-28 28.8-44-6.4 12.8-14.4 25.6-25.6 36.8-51.2 51.2-135.2 51.2-186.4 0-38.4-38.4-48-94.4-28.8-142.4-23.2 48.8-15.2 109.6 25.6 149.6z"/><path d="M186.4 212.8c65.6-65.6 172-65.6 237.6 0 48.8 48.8 61.6 120.8 36.8 181.6 28.8-62.4 17.6-138.4-33.6-189.6-65.6-65.6-172-65.6-237.6 0-16.8 16.8-28.8 36-36.8 56 8-16.8 19.2-33.6 33.6-48z"/></g><g fill="#ef683f"><path d="M221.6 0l23.2 27.2L184 80l-60.8-52.8L146.4 0z"/><path d="M221.6 0l23.2 27.2L184 80l-60.8-52.8L146.4 0z"/></g><path fill="#e84621" d="M244.8 27.2L184 80.8l-60.8-53.6"/><path fill="#ef683f" d="M221.6 0L220 25.6 184 80l-33.6-55.2-4-24.8z"/><path fill="#ea1f0a" d="M221.6 0L220 25.6 184 3.2l-33.6 21.6-4-24.8z"/><path fill="#aa2011" d="M220 27.2l-36 53.6-33.6-53.6"/><path fill="#eda785" d="M135.2 27.2L184 80.8l-60.8-53.6L146.4 0"/><path fill="#aa2011" d="M232.8 27.2L184 80.8l60.8-53.6L221.6 0"/></symbol><symbol id="share" viewBox="0 0 511.626 511.627"><path d="M506.206 179.012L360.025 32.834c-3.617-3.617-7.898-5.426-12.847-5.426s-9.233 1.809-12.847 5.426c-3.617 3.619-5.428 7.902-5.428 12.85v73.089H264.95c-135.716 0-218.984 38.354-249.823 115.06C5.042 259.335 0 291.03 0 328.907c0 31.594 12.087 74.514 36.259 128.762.57 1.335 1.566 3.614 2.996 6.849a603.829 603.829 0 0 0 3.854 8.565c1.146 2.471 2.384 4.565 3.715 6.276 2.282 3.237 4.948 4.859 7.994 4.859 2.855 0 5.092-.951 6.711-2.854 1.615-1.902 2.424-4.284 2.424-7.132 0-1.718-.238-4.236-.715-7.569-.476-3.333-.715-5.564-.715-6.708-.953-12.938-1.429-24.653-1.429-35.114 0-19.223 1.668-36.449 4.996-51.675 3.333-15.229 7.948-28.407 13.85-39.543 5.901-11.14 13.512-20.745 22.841-28.835 9.325-8.09 19.364-14.702 30.118-19.842 10.756-5.141 23.413-9.186 37.974-12.135 14.56-2.95 29.215-4.997 43.968-6.14s31.455-1.711 50.109-1.711h63.953v73.091c0 4.948 1.807 9.232 5.421 12.847 3.62 3.613 7.901 5.424 12.847 5.424 4.948 0 9.232-1.811 12.854-5.424l146.178-146.183c3.617-3.617 5.424-7.898 5.424-12.847-.001-4.948-1.807-9.232-5.421-12.856z" fill="#FFF"/></symbol><symbol id="single" viewBox="0 0 464.001 464.001"><path d="M388.628 437.023l-10.126-81.012a32.002 32.002 0 0 0-21.633-26.389l-39.047-13.016c-5.362-1.788-11.244-.649-15.379 2.874l-11.502-3.834a16 16 0 0 1-10.94-15.179v-25.802l34.461-14.359A47.995 47.995 0 0 0 344 216v-8c13.255 0 24-10.745 24-24a23.899 23.899 0 0 0-5.808-15.645C368.983 143.637 388.07 65.449 368 32l8-32s-84 2-128 16l16-16S151.5 0 128.007 39.993L128 40s-40-.333-40 48c0 17.69 9.867 61.862 14.103 80.015A23.909 23.909 0 0 0 96 184c0 13.255 10.745 24 24 24v8a48.002 48.002 0 0 0 29.538 44.308L184 274.667v25.801a16 16 0 0 1-10.94 15.179l-11.502 3.834c-4.135-3.523-10.017-4.662-15.379-2.874l-39.047 13.016a31.999 31.999 0 0 0-21.633 26.389l-10.126 81.012C73.582 451.348 84.751 464 99.187 464H364.813c14.436 0 25.606-12.652 23.815-26.977z" fill="#ffd7a3"/><path d="M280 274.667l-96 .001v25.801c0 5.759-3.186 10.831-8.017 13.659C243.077 325.871 280 274.667 280 274.667z" fill="#fdc88e"/><path d="M104 176s-16-65.474-16-88c0-48.333 40-48 40-48l.007-.007C151.5 0 264 0 264 0l-16 16C292 2 376 0 376 0l-8 32c24 40-8 144-8 144H104z" fill="#734a3e"/><path d="M264 0S151.5 0 128.007 39.993L128 40s-40-.333-40 48c0 22.526 16 88 16 88S270.334 101.667 376 0c0 0-84 2-128 16l16-16z" fill="#623f33"/><path d="M344 160v-16c0-22.091-17.909-40-40-40H160c-22.091 0-40 17.909-40 40v16c-13.255 0-24 10.745-24 24s10.745 24 24 24v8a48.002 48.002 0 0 0 29.538 44.308l51.691 21.538a80.007 80.007 0 0 0 61.539 0l51.694-21.539A47.997 47.997 0 0 0 344 216v-8c13.255 0 24-10.745 24-24s-10.745-24-24-24z" fill="#ffe1b2"/><path d="M176 192c-4.4 0-8-3.6-8-8v-8c0-4.4 3.6-8 8-8s8 3.6 8 8v8c0 4.4-3.6 8-8 8zM288 192c-4.4 0-8-3.6-8-8v-8c0-4.4 3.6-8 8-8s8 3.6 8 8v8c0 4.4-3.6 8-8 8z" fill="#623f33"/><path d="M232 248.219c-14.223 0-27.527-3.5-36.5-9.605-3.652-2.484-4.602-7.461-2.113-11.113 2.48-3.648 7.461-4.598 11.113-2.113 6.289 4.277 16.57 6.832 27.5 6.832s21.211-2.555 27.5-6.832a7.992 7.992 0 0 1 11.113 2.113 7.997 7.997 0 0 1-2.113 11.113c-8.972 6.105-22.277 9.605-36.5 9.605z" fill="#e4b07b"/><path d="M388.628 437.024l-10.126-81.012a32 32 0 0 0-21.633-26.389l-39.047-13.016c-6.8-2.267-14.45.154-18.291 6.206C285.349 345.157 260.424 360 232 360s-53.349-14.844-67.53-37.187c-3.841-6.052-11.491-8.473-18.291-6.206l-39.047 13.016a31.999 31.999 0 0 0-21.633 26.389l-10.126 81.012c-1.791 14.324 9.379 26.977 23.815 26.977h265.626c14.435 0 25.605-12.653 23.814-26.977z" fill="#00bea4"/><path d="M92.168 340.168c-3.552 4.497-5.93 9.93-6.669 15.843l-10.126 81.012C73.582 451.348 84.752 464 99.188 464H144v-52.067a32.004 32.004 0 0 0-7.813-20.953l-44.019-50.812zM371.832 340.168c3.552 4.497 5.93 9.93 6.669 15.843l10.126 81.012c1.791 14.325-9.379 26.977-23.815 26.977H320v-52.067a32.004 32.004 0 0 1 7.813-20.953l44.019-50.812z" fill="#00ab9a"/><path d="M161.996 243.723c-6.482-6.95-9.995-16.121-9.995-25.625v-90.66c25.463-1.909 105.744-8.852 152-23.438H160c-2.754 0-5.421.321-8 .881v-.075c-18.257 3.707-32 19.843-32 39.194v16c-13.255 0-24 10.745-24 24s10.745 24 24 24v8a48 48 0 0 0 29.538 44.308l51.69 21.538a80.115 80.115 0 0 0 7.727 2.749c-22.844-16.712-38.05-31.321-46.959-40.872z" fill="#ffd7a3"/></symbol><symbol id="soundOff" viewBox="0 0 356.233 356.233"><path d="M263.838 185.598V23.222c0-8.513-4.603-16.314-12.011-20.357A23.404 23.404 0 0 0 240.642 0a22.815 22.815 0 0 0-12.341 3.608L105.753 82.105h-38.78c-16.616 0-30.135 13.774-30.135 30.705v98.402c0 17.035 13.519 30.893 30.135 30.893h38.787l36.666 23.335a92.043 92.043 0 0 0-.029 2.294c0 48.798 39.7 88.499 88.499 88.499s88.499-39.701 88.499-88.499c0-37.161-23.025-69.042-55.557-82.136zm-81.745 114.34a58.147 58.147 0 0 1-9.696-32.204c0-32.257 26.242-58.5 58.499-58.5a58.147 58.147 0 0 1 32.204 9.696l-81.007 81.008zm48.803 26.295a58.114 58.114 0 0 1-26.368-6.305l78.562-78.562a58.114 58.114 0 0 1 6.305 26.368c0 32.257-26.242 58.499-58.499 58.499z" fill="#FFF"/></symbol><symbol id="soundOn" viewBox="0 0 115.3 115.3"><g fill="#FFF"><path d="M47.9 14.306L26 30.706H6c-3.3 0-6 2.7-6 6v41.8c0 3.301 2.7 6 6 6h20l21.9 16.4c4 3 9.6.2 9.6-4.8v-77c0-5-5.7-7.8-9.6-4.8zM77.3 24.106c-2.7-2.7-7.2-2.7-9.899 0-2.7 2.7-2.7 7.2 0 9.9 13 13 13 34.101 0 47.101-2.7 2.7-2.7 7.2 0 9.899 1.399 1.4 3.199 2 4.899 2s3.601-.699 4.9-2.1c18.6-18.3 18.6-48.3.1-66.8z"/><path d="M85.1 8.406c-2.699 2.7-2.699 7.2 0 9.9 10.5 10.5 16.301 24.4 16.301 39.3s-5.801 28.8-16.301 39.3c-2.699 2.7-2.699 7.2 0 9.9 1.4 1.399 3.2 2.1 4.9 2.1 1.8 0 3.6-.7 4.9-2 13.1-13.1 20.399-30.6 20.399-49.2s-7.2-36-20.399-49.2c-2.6-2.8-7-2.8-9.8-.1z"/></g></symbol><symbol id="tw" viewBox="0 0 449.956 449.956"><path d="M449.956 85.657c-17.702 7.614-35.408 12.369-53.102 14.279 19.985-11.991 33.503-28.931 40.546-50.819-18.281 10.847-37.787 18.268-58.532 22.267-18.274-19.414-40.73-29.125-67.383-29.125-25.502 0-47.246 8.992-65.24 26.98-17.984 17.987-26.977 39.731-26.977 65.235 0 6.851.76 13.896 2.284 21.128-37.688-1.903-73.042-11.372-106.068-28.407C82.46 110.158 54.433 87.46 31.403 59.101c-8.375 14.272-12.564 29.787-12.564 46.536 0 15.798 3.711 30.456 11.138 43.97 7.422 13.512 17.417 24.455 29.98 32.831-14.849-.572-28.743-4.475-41.684-11.708v1.142c0 22.271 6.995 41.824 20.983 58.674 13.99 16.848 31.645 27.453 52.961 31.833a95.543 95.543 0 0 1-24.269 3.138c-5.33 0-11.136-.475-17.416-1.42 5.9 18.459 16.75 33.633 32.546 45.535 15.799 11.896 33.691 18.028 53.677 18.418-33.498 26.262-71.66 39.393-114.486 39.393-8.186 0-15.607-.373-22.27-1.139 42.827 27.596 90.03 41.394 141.612 41.394 32.738 0 63.478-5.181 92.21-15.557 28.746-10.369 53.297-24.267 73.665-41.686 20.362-17.415 37.925-37.448 52.674-60.097 14.75-22.651 25.738-46.298 32.977-70.946 7.23-24.653 10.848-49.344 10.848-74.092 0-5.33-.096-9.325-.287-11.991 18.087-13.127 33.504-29.023 46.258-47.672z"/></symbol><symbol id="university" viewBox="0 0 460 460"><path d="M320 15l-10 25 10 25a5 5 0 0 1-5 5h-85V10h85a5 5 0 0 1 5 5z" fill="#b14724"/><path d="M235 5v435h-10V5a5 5 0 0 1 10 0z" fill="#6b6457"/><path d="M460 440v20H0v-20h20V230h100v-70l110-50 110 50v70h100v210h20z" fill="#aea99a"/><path d="M114.865 327.573L110 240h10v87.431a2.57 2.57 0 1 1-5.135.142zm230.27 0L350 240h-10v87.431a2.57 2.57 0 1 0 5.135.142z" fill="#868378"/><path d="M360 180h-10v10H110v-10h-10v-10h260v10zm-240 70v-20H0v10h10v10h110zm340-20v10h-10v10H340v-20h120zM10 330v-10H0v-10h120v20H10zm440-20H340v20h110v-10h10v-10h-10zM165 210c-13.807 0-25 11.193-25 25v95h50v-95c0-13.807-11.193-25-25-25zm65 0c-13.807 0-25 11.193-25 25v95h50v-95c0-13.807-11.193-25-25-25zm65 0c-13.807 0-25 11.193-25 25v95h50v-95c0-13.807-11.193-25-25-25z" fill="#d6cfba"/><path d="M150 283.333v-26.667h30v26.667h-30zm30-36.666V235c0-8.284-6.716-15-15-15-8.284 0-15 6.716-15 15v11.667h30zm-30 46.666V320h30v-26.667h-30zm95-10v-26.667h-30v26.667h30zm0-36.666V235c0-8.284-6.716-15-15-15-8.284 0-15 6.716-15 15v11.667h30zm-30 46.666V320h30v-26.667h-30zm95-10v-26.667h-30v26.667h30zm0-36.666V235c0-8.284-6.716-15-15-15-8.284 0-15 6.716-15 15v11.667h30zm-30 46.666V320h30v-26.667h-30zM260 380v60h-60v-60c0-16.569 13.431-30 30-30 16.569 0 30 13.431 30 30zm-110-30c-16.569 0-30 13.431-30 30v60h60v-60c0-16.569-13.431-30-30-30zm-80 0c-16.569 0-30 13.431-30 30v60h60v-60c0-16.569-13.431-30-30-30zm240 0c-16.569 0-30 13.431-30 30v60h60v-60c0-16.569-13.431-30-30-30zm80 0c-16.569 0-30 13.431-30 30v60h60v-60c0-16.569-13.431-30-30-30zM45 260a5 5 0 0 0-5 5v30a5 5 0 0 0 10 0v-30a5 5 0 0 0-5-5zm25 0a5 5 0 0 0-5 5v30a5 5 0 0 0 10 0v-30a5 5 0 0 0-5-5zm25 0a5 5 0 0 0-5 5v30a5 5 0 0 0 10 0v-30a5 5 0 0 0-5-5zm270 0a5 5 0 0 0-5 5v30a5 5 0 0 0 10 0v-30a5 5 0 0 0-5-5zm25 0a5 5 0 0 0-5 5v30a5 5 0 0 0 10 0v-30a5 5 0 0 0-5-5zm25 0a5 5 0 0 0-5 5v30a5 5 0 0 0 10 0v-30a5 5 0 0 0-5-5z" fill="#6b6457"/><path d="M450 440H10v-10h440v10z" fill="#d6cfba"/><path d="M460 460H0v-10h460v10z" fill="#6b6457"/></symbol><symbol id="vk" viewBox="0 0 548.358 548.358"><path d="M545.451 400.298c-.664-1.431-1.283-2.618-1.858-3.569-9.514-17.135-27.695-38.167-54.532-63.102l-.567-.571-.284-.28-.287-.287h-.288c-12.18-11.611-19.893-19.418-23.123-23.415-5.91-7.614-7.234-15.321-4.004-23.13 2.282-5.9 10.854-18.36 25.696-37.397 7.807-10.089 13.99-18.175 18.556-24.267 32.931-43.78 47.208-71.756 42.828-83.939l-1.701-2.847c-1.143-1.714-4.093-3.282-8.846-4.712-4.764-1.427-10.853-1.663-18.278-.712l-82.224.568c-1.332-.472-3.234-.428-5.712.144l-3.713.859-1.431.715-1.136.859c-.952.568-1.999 1.567-3.142 2.995-1.137 1.423-2.088 3.093-2.848 4.996-8.952 23.031-19.13 44.444-30.553 64.238-7.043 11.803-13.511 22.032-19.418 30.693-5.899 8.658-10.848 15.037-14.842 19.126-4 4.093-7.61 7.372-10.852 9.849-3.237 2.478-5.708 3.525-7.419 3.142-1.715-.383-3.33-.763-4.859-1.143-2.663-1.714-4.805-4.045-6.42-6.995-1.622-2.95-2.714-6.663-3.285-11.136-.568-4.476-.904-8.326-1-11.563-.089-3.233-.048-7.806.145-13.706.198-5.903.287-9.897.287-11.991 0-7.234.141-15.085.424-23.555.288-8.47.521-15.181.716-20.125.194-4.949.284-10.185.284-15.705s-.336-9.849-1-12.991a44.442 44.442 0 0 0-2.99-9.137c-1.335-2.95-3.289-5.232-5.853-6.852-2.569-1.618-5.763-2.902-9.564-3.856-10.089-2.283-22.936-3.518-38.547-3.71-35.401-.38-58.148 1.906-68.236 6.855-3.997 2.091-7.614 4.948-10.848 8.562-3.427 4.189-3.905 6.475-1.431 6.851 11.422 1.711 19.508 5.804 24.267 12.275l1.715 3.429c1.334 2.474 2.666 6.854 3.999 13.134 1.331 6.28 2.19 13.227 2.568 20.837.95 13.897.95 25.793 0 35.689-.953 9.9-1.853 17.607-2.712 23.127-.859 5.52-2.143 9.993-3.855 13.418-1.715 3.426-2.856 5.52-3.428 6.28-.571.76-1.047 1.239-1.425 1.427a21.387 21.387 0 0 1-7.71 1.431c-2.667 0-5.901-1.334-9.707-4-3.805-2.666-7.754-6.328-11.847-10.992-4.093-4.665-8.709-11.184-13.85-19.558-5.137-8.374-10.467-18.271-15.987-29.691l-4.567-8.282c-2.855-5.328-6.755-13.086-11.704-23.267-4.952-10.185-9.329-20.037-13.134-29.554-1.521-3.997-3.806-7.04-6.851-9.134l-1.429-.859c-.95-.76-2.475-1.567-4.567-2.427a30.301 30.301 0 0 0-6.567-1.854l-78.229.568c-7.994 0-13.418 1.811-16.274 5.428l-1.143 1.711c-.571.953-.859 2.475-.859 4.57 0 2.094.571 4.664 1.714 7.707 11.42 26.84 23.839 52.725 37.257 77.659 13.418 24.934 25.078 45.019 34.973 60.237 9.897 15.229 19.985 29.602 30.264 43.112 10.279 13.515 17.083 22.176 20.412 25.981 3.333 3.812 5.951 6.662 7.854 8.565l7.139 6.851c4.568 4.569 11.276 10.041 20.127 16.416 8.853 6.379 18.654 12.659 29.408 18.85 10.756 6.181 23.269 11.225 37.546 15.126 14.275 3.905 28.169 5.472 41.684 4.716h32.834c6.659-.575 11.704-2.669 15.133-6.283l1.136-1.431c.764-1.136 1.479-2.901 2.139-5.276.668-2.379 1-5 1-7.851-.195-8.183.428-15.558 1.852-22.124 1.423-6.564 3.045-11.513 4.859-14.846 1.813-3.33 3.859-6.14 6.136-8.418 2.282-2.283 3.908-3.666 4.862-4.142.948-.479 1.705-.804 2.276-.999 4.568-1.522 9.944-.048 16.136 4.429 6.187 4.473 11.99 9.996 17.418 16.56 5.425 6.57 11.943 13.941 19.555 22.124 7.617 8.186 14.277 14.271 19.985 18.274l5.708 3.426c3.812 2.286 8.761 4.38 14.853 6.283 6.081 1.902 11.409 2.378 15.984 1.427l73.087-1.14c7.229 0 12.854-1.197 16.844-3.572 3.998-2.379 6.373-5 7.139-7.851.764-2.854.805-6.092.145-9.712-.677-3.611-1.344-6.136-2.008-7.563z"/></symbol></svg>