<?xml version="1.0" encoding="iso-8859-1"?>
<!-- Generator: Adobe Illustrator 19.0.0, SVG Export Plug-In . SVG Version: 6.00 Build 0)  -->
<svg version="1.1" id="Layer_1" xmlns="http://www.w3.org/2000/svg" xmlns:xlink="http://www.w3.org/1999/xlink" x="0px" y="0px"
	 viewBox="0 0 492.4 492.4" style="enable-background:new 0 0 492.4 492.4;" xml:space="preserve">
<path style="fill:#F4BD22;" d="M184,392.8c-92.8,0-168-75.2-168-168s75.2-168,168-168s168,75.2,168,168S276.8,392.8,184,392.8z
	 M184,92.8c-72.8,0-132,59.2-132,132s59.2,132,132,132s132-59.2,132-132S256.8,92.8,184,92.8z"/>
<g>
	<path style="fill:#FFEE76;" d="M187.2,364.8c72.8,0,132-59.2,132-132c0-18.4-4-36-10.4-52c4.8,13.6,8,28.8,8,44
		c0,72.8-59.2,132-132,132c-54.4,0-100.8-32.8-120.8-80C80.8,328,129.6,364.8,187.2,364.8z"/>
	<path style="fill:#FFEE76;" d="M19.2,232.8c0-92.8,75.2-168,168-168c69.6,0,128.8,42.4,154.4,102.4c-24-64-85.6-110.4-157.6-110.4
		c-92.8,0-168,75.2-168,168c0,23.2,4.8,45.6,13.6,65.6C23.2,272.8,19.2,252.8,19.2,232.8z"/>
</g>
<g>
	<path style="fill:#F8991E;" d="M184,56.8c-0.8,0-1.6,0-1.6,0v36c0,0,0.8,0,1.6,0c72.8,0,132,59.2,132,132s-59.2,132-132,132
		c-0.8,0-1.6,0-1.6,0v36c0,0,0.8,0,1.6,0c92.8,0,168-75.2,168-168S276.8,56.8,184,56.8z"/>
	<path style="fill:#F8991E;" d="M189.6,443.2c-65.6-65.6-65.6-172,0-237.6s172-65.6,237.6,0s65.6,172,0,237.6
		C362.4,508.8,255.2,508.8,189.6,443.2z M401.6,231.2c-51.2-51.2-135.2-51.2-186.4,0s-51.2,135.2,0,186.4s135.2,51.2,186.4,0
		C453.6,365.6,453.6,282.4,401.6,231.2z"/>
</g>
<g>
	<path style="fill:#FFEE76;" d="M212,424.8c51.2,51.2,135.2,51.2,186.4,0c12.8-12.8,22.4-28,28.8-44c-6.4,12.8-14.4,25.6-25.6,36.8
		c-51.2,51.2-135.2,51.2-186.4,0c-38.4-38.4-48-94.4-28.8-142.4C163.2,324,171.2,384.8,212,424.8z"/>
	<path style="fill:#FFEE76;" d="M186.4,212.8c65.6-65.6,172-65.6,237.6,0c48.8,48.8,61.6,120.8,36.8,181.6
		c28.8-62.4,17.6-138.4-33.6-189.6c-65.6-65.6-172-65.6-237.6,0c-16.8,16.8-28.8,36-36.8,56C160.8,244,172,227.2,186.4,212.8z"/>
</g>
<g>
	<polygon style="fill:#EF683F;" points="221.6,0 244.8,27.2 184,80 123.2,27.2 146.4,0 	"/>
	<polygon style="fill:#EF683F;" points="221.6,0 244.8,27.2 184,80 123.2,27.2 146.4,0 	"/>
</g>
<polyline style="fill:#E84621;" points="244.8,27.2 184,80.8 123.2,27.2 "/>
<polygon style="fill:#EF683F;" points="221.6,0 220,25.6 184,80 150.4,24.8 146.4,0 "/>
<polygon style="fill:#EA1F0A;" points="221.6,0 220,25.6 184,3.2 150.4,24.8 146.4,0 "/>
<polyline style="fill:#AA2011;" points="220,27.2 184,80.8 150.4,27.2 "/>
<polyline style="fill:#EDA785;" points="135.2,27.2 184,80.8 123.2,27.2 146.4,0 "/>
<polyline style="fill:#AA2011;" points="232.8,27.2 184,80.8 244.8,27.2 221.6,0 "/>
<g>
</g>
<g>
</g>
<g>
</g>
<g>
</g>
<g>
</g>
<g>
</g>
<g>
</g>
<g>
</g>
<g>
</g>
<g>
</g>
<g>
</g>
<g>
</g>
<g>
</g>
<g>
</g>
<g>
</g>
</svg>
