<?xml version="1.0" encoding="iso-8859-1"?>
<!-- Generator: Adobe Illustrator 17.1.0, SVG Export Plug-In . SVG Version: 6.00 Build 0)  -->
<!DOCTYPE svg PUBLIC "-//W3C//DTD SVG 1.1//EN" "http://www.w3.org/Graphics/SVG/1.1/DTD/svg11.dtd">
<svg xmlns="http://www.w3.org/2000/svg" xmlns:xlink="http://www.w3.org/1999/xlink" version="1.1" id="Capa_1" x="0px" y="0px" viewBox="0 0 356.233 356.233" style="enable-background:new 0 0 356.233 356.233;" xml:space="preserve" width="512px" height="512px">
<path d="M263.838,185.598V23.222c0-8.513-4.603-16.314-12.011-20.357C248.394,0.99,244.527,0,240.642,0  c-4.393,0-8.661,1.248-12.341,3.608L105.753,82.105H66.973c-16.616,0-30.135,13.774-30.135,30.705v98.402  c0,17.035,13.519,30.893,30.135,30.893h38.787l36.666,23.335c-0.019,0.762-0.029,1.527-0.029,2.294  c0,48.798,39.7,88.499,88.499,88.499s88.499-39.701,88.499-88.499C319.395,230.573,296.37,198.692,263.838,185.598z   M182.093,299.938c-6.12-9.243-9.696-20.312-9.696-32.204c0-32.257,26.242-58.5,58.499-58.5c11.892,0,22.961,3.576,32.204,9.696  L182.093,299.938z M230.896,326.233c-9.483,0-18.438-2.282-26.368-6.305l78.562-78.562c4.023,7.93,6.305,16.885,6.305,26.368  C289.395,299.991,263.153,326.233,230.896,326.233z" fill="#FFFFFF"/>
<g>
</g>
<g>
</g>
<g>
</g>
<g>
</g>
<g>
</g>
<g>
</g>
<g>
</g>
<g>
</g>
<g>
</g>
<g>
</g>
<g>
</g>
<g>
</g>
<g>
</g>
<g>
</g>
<g>
</g>
</svg>
